<svg xmlns="http://www.w3.org/2000/svg" viewBox="0 0 147.38 115.25"><defs><style>.cls-1{fill:#fff;}</style></defs><g id="Camada_2" data-name="Camada 2"><g id="Camada_1-2" data-name="Camada 1"><path class="cls-1" d="M137.92,90.83H33L85.48,0ZM49.63,81.25h71.7L85.48,19.16Z"/><path class="cls-1" d="M44.1,90.83H9.46L49.67,21.19,67,51.19Zm-18-9.58H38.57L55.93,51.19,49.67,40.35Z"/><path class="cls-1" d="M101.18,46c-4.24-4.24-8.32-4.1-14-3.91-1.18,0-2.39.08-3.64.08C74.49,42.19,70.74,33.5,70,28.9l9.46-1.51c0,.05.93,5.22,4.09,5.22,1.09,0,2.17,0,3.31-.07,6.51-.23,13.89-.48,21.07,6.7Z"/><path class="cls-1" d="M0,99.92H2.86v15.17H0Zm1,0h9.13v2.76H1Zm0,6.26H9v2.76H1Zm0,6.16h9.13v2.75H1Z"/><path class="cls-1" d="M20.73,115.25l-1-.22a8.92,8.92,0,0,1-2-.64,7.25,7.25,0,0,1-1.63-1L17.43,111a6.66,6.66,0,0,0,2,1.12,7.26,7.26,0,0,0,2.36.39A4.13,4.13,0,0,0,24,112a1.49,1.49,0,0,0,.77-1.34h0a1.37,1.37,0,0,0-.34-1,2,2,0,0,0-.9-.52,11,11,0,0,0-1.42-.3H22l-.23,0a14.2,14.2,0,0,1-2.52-.6,3.68,3.68,0,0,1-1.7-1.26,4.06,4.06,0,0,1-.7-2.56h0a4.64,4.64,0,0,1,.66-2.52,4.14,4.14,0,0,1,1.91-1.59,7.58,7.58,0,0,1,3-.55,8.15,8.15,0,0,1,1.67.19,10,10,0,0,1,1.66.54,10.19,10.19,0,0,1,1.55.86l-1.22,2.42a7.93,7.93,0,0,0-1.83-.94,5.54,5.54,0,0,0-1.83-.33,4,4,0,0,0-2,.43,1.36,1.36,0,0,0-.72,1.22h0a1.42,1.42,0,0,0,.37,1,2.18,2.18,0,0,0,.93.55,13.77,13.77,0,0,0,1.56.38l.08,0h.08l.12,0,.12,0a12.63,12.63,0,0,1,2.41.69A3.79,3.79,0,0,1,27,108.19a4.11,4.11,0,0,1,.65,2.44v0a4.43,4.43,0,0,1-.68,2.48,4.21,4.21,0,0,1-2,1.58,8.11,8.11,0,0,1-3.12.54Z"/><path class="cls-1" d="M37.51,115.25l-1.23-.66a4.44,4.44,0,0,1-1.88-1.93,6.72,6.72,0,0,1-.65-3.07v-4.16a6.65,6.65,0,0,1,.65-3.06,4.46,4.46,0,0,1,1.88-1.94,6.19,6.19,0,0,1,3-.67,5.27,5.27,0,0,1,2.56.62,5.05,5.05,0,0,1,1.86,1.79,7.77,7.77,0,0,1,1,2.83h-3a3.81,3.81,0,0,0-.51-1.28,2.42,2.42,0,0,0-.85-.81,2.19,2.19,0,0,0-1.11-.29,2.67,2.67,0,0,0-1.37.33,2.18,2.18,0,0,0-.86,1,3.53,3.53,0,0,0-.29,1.52v4.16a3.5,3.5,0,0,0,.29,1.52,2.15,2.15,0,0,0,.86,1,2.67,2.67,0,0,0,1.37.33,2.26,2.26,0,0,0,1.13-.28,2.37,2.37,0,0,0,.84-.8,3.72,3.72,0,0,0,.5-1.3h3a8,8,0,0,1-1,2.84,5.13,5.13,0,0,1-1.86,1.79,5.23,5.23,0,0,1-2.55.61Z"/><path class="cls-1" d="M55.28,99.92h1.81l5.8,15.17H59.82l-3.64-10.36-3.63,10.36H49.47Zm-3,10h8v2.75h-8Z"/><path class="cls-1" d="M69.05,99.92h2.86v15.17H69.05Zm1.27,12.42h8.89v2.75H70.32Z"/><path class="cls-1" d="M90.12,99.92h1.82l5.8,15.17H94.66L91,104.73,87.4,115.09H84.32Zm-3,10h8v2.75h-8Z"/><path class="cls-1" d="M101.39,99.92h11.12v2.76H101.39Zm4.13,1.24h2.86v13.93h-2.86Z"/><path class="cls-1" d="M120.36,114.56a4.84,4.84,0,0,1-1.94-2,6,6,0,0,1-.69-2.93v-4.3a6.05,6.05,0,0,1,.69-2.94,4.76,4.76,0,0,1,1.94-2,6.4,6.4,0,0,1,5.82,0,4.82,4.82,0,0,1,1.94,2,6.05,6.05,0,0,1,.69,2.94v4.3a6,6,0,0,1-.69,2.93,4.9,4.9,0,0,1-1.94,2,6.48,6.48,0,0,1-5.82,0Zm4.27-2.5a2.24,2.24,0,0,0,.9-.93,3,3,0,0,0,.32-1.4v-4.45a3,3,0,0,0-.32-1.39,2.21,2.21,0,0,0-.9-.94,3,3,0,0,0-2.72,0,2.21,2.21,0,0,0-.9.94,3,3,0,0,0-.32,1.39v4.45a3,3,0,0,0,.32,1.4,2.24,2.24,0,0,0,.9.93,3,3,0,0,0,2.72,0Z"/><path class="cls-1" d="M135.9,99.91h2.86v15.18H135.9Zm1.14,6.32h5.28a1.33,1.33,0,0,0,1.29-.84,2.48,2.48,0,0,0,0-1.88,1.34,1.34,0,0,0-1.3-.84H137V99.91h5.51a4.28,4.28,0,0,1,2.2.56,3.8,3.8,0,0,1,1.47,1.6,5.71,5.71,0,0,1,0,4.76,3.8,3.8,0,0,1-1.47,1.6,4.31,4.31,0,0,1-2.2.56H137Zm3.19,2.29,3.06-.48,4.09,7h-3.46Z"/></g></g></svg>